# xmcd
#
# Track frame offsets:
#	150
#	21379
#	32246
#	44912
#	60627
#	73812
#	83004
#	95008
#	111073
#	124168
#	138400
#	151907
#	161533
#	169491
#	178917
#	190716
#	204929
#	215568
#	227081
#	237813
#	250287
#	259237
#	271848
#	282444
#	293418
#	303097
#	316955
#
# Disc length: 4388 seconds
#
# Revision: 0
# Processed by: cddbd v1.4PL0 Copyright (c) Steve Scherf et al.
# Submitted via: MusicWizard 6.0.0
#
DISCID=8e11221b
DTITLE=Johnny Cash - Everybody Loves A Nut ... And More
DYEAR=1900
DGENRE=Country
TTITLE0=A Cup Of Coffee
TTITLE1=Dirty Old Egg-Sucking Dog (1995)
TTITLE2=The One On The Right Is On The Left
TTITLE3=Concerning Your New Song
TTITLE4=The Bug That Tried To Crawl Around The World
TTITLE5=Flushed From The Bathroom Of Your Heart
TTITLE6=Take Me Home
TTITLE7=The Song Of The Coward
TTITLE8=Please Don't Play Red River Valley
TTITLE9=Foolish Questions
TTITLE10=The Singing Star's Queen
TTITLE11=Austin Prison
TTITLE12=Boa Constrictor
TTITLE13=Everybody Loves A Nut
TTITLE14=The Sound Of Laughter
TTITLE15=Joe Bean
TTITLE16=The Frozen Logger
TTITLE17=The Sons Of Katie Elder
TTITLE18=Put The Sugar To Bed
TTITLE19=Red Velvet
TTITLE20=Rosanna's Going Wild
TTITLE21=The Wind Changes
TTITLE22=On The Line
TTITLE23=Roll Call
TTITLE24=You Beat All I Ever Saw
TTITLE25=The Folk Singer
TTITLE26=Six White Horses
EXTD=
EXTT0=
EXTT1=
EXTT2=
EXTT3=
EXTT4=
EXTT5=
EXTT6=
EXTT7=
EXTT8=
EXTT9=
EXTT10=
EXTT11=
EXTT12=
EXTT13=
EXTT14=
EXTT15=
EXTT16=
EXTT17=
EXTT18=
EXTT19=
EXTT20=
EXTT21=
EXTT22=
EXTT23=
EXTT24=
EXTT25=
EXTT26=
PLAYORDER=
